<svg width="564" height="152" viewBox="0 0 564 152" fill="none" xmlns="http://www.w3.org/2000/svg">
<g filter="url(#filter0_d_20_3)">
<path d="M52.2 143.8C43.1333 143.8 35 142.2 27.8 139C20.6 135.8 14.9333 131.333 10.8 125.6C6.8 119.867 4.8 113.467 4.8 106.4C4.8 97.7333 7.66667 91.6667 13.4 88.2C19.2667 84.7333 27.4 83 37.8 83C37.1333 85 36.4667 87.8 35.8 91.4C35.2667 94.8667 35 97.6 35 99.6C35 105.733 36.8 110.4 40.4 113.6C44.1333 116.667 49.5333 118.2 56.6 118.2C64.8667 118.2 71.6 115.8 76.8 111C82 106.2 85.4 99.2667 87 90.2L98 27.4H79C68.3333 27.4 63 21.8667 63 10.8C63 7.73333 63.2667 4.79999 63.8 1.99999H117.6C121.2 1.99999 124.133 3.06666 126.4 5.2C128.667 7.2 129.8 9.79999 129.8 13C129.8 14.0667 129.733 14.8667 129.6 15.4L116.4 90.2C113.333 107.267 106.2 120.467 95 129.8C83.9333 139.133 69.6667 143.8 52.2 143.8ZM171.419 143.8C163.552 143.8 156.485 142.4 150.219 139.6C143.952 136.667 139.085 132.8 135.619 128C132.152 123.067 130.419 117.6 130.419 111.6C130.419 109.333 130.552 107.6 130.819 106.4L135.419 79.8C137.552 67.8 143.419 58.2 153.019 51C162.619 43.8 174.819 40.2 189.619 40.2C197.885 40.2 205.085 41.6667 211.219 44.6C217.352 47.4 222.085 51.3333 225.419 56.4C228.752 61.3333 230.419 67 230.419 73.4C230.419 75.4 230.219 77.5333 229.819 79.8L225.219 106.4C223.219 117.867 217.285 127 207.419 133.8C197.685 140.467 185.685 143.8 171.419 143.8ZM175.619 120.2C181.885 120.2 186.952 118.8 190.819 116C194.819 113.2 197.285 109.333 198.219 104.4L202.219 81.2C202.485 79.6 202.619 78.4667 202.619 77.8C202.619 73.4 201.085 70 198.019 67.6C195.085 65.0667 190.952 63.8 185.619 63.8C179.485 63.8 174.352 65.4 170.219 68.6C166.085 71.8 163.552 76 162.619 81.2L158.619 104.4C158.485 105.067 158.419 106.133 158.419 107.6C158.419 111.6 159.885 114.733 162.819 117C165.885 119.133 170.152 120.2 175.619 120.2ZM277.433 143.8C268.633 143.8 261.833 141.533 257.033 137C252.233 132.467 249.833 126 249.833 117.6C249.833 114.533 250.099 111.6 250.633 108.8L258.833 62.2H237.633C238.699 55.8 240.766 50.8667 243.833 47.4C246.899 43.8 250.633 42 255.033 42H262.833L265.633 26.2C266.699 20.6 269.499 16.5333 274.033 14C278.699 11.4667 285.699 10.2 295.033 10.2L289.433 42H316.033C314.833 49.0667 312.566 54.2 309.233 57.4C306.033 60.6 301.366 62.2 295.233 62.2H286.233L278.233 107.8C277.966 109.933 277.833 111.4 277.833 112.2C277.833 115.133 278.566 117.2 280.033 118.4C281.633 119.6 284.166 120.2 287.633 120.2C292.299 120.2 297.366 118.867 302.833 116.2C303.766 117.133 304.499 118.4 305.033 120C305.566 121.467 305.833 123 305.833 124.6C305.833 129.933 303.033 134.467 297.433 138.2C291.966 141.933 285.299 143.8 277.433 143.8ZM357.706 143.8C348.906 143.8 342.106 141.533 337.306 137C332.506 132.467 330.106 126 330.106 117.6C330.106 114.533 330.373 111.6 330.906 108.8L339.106 62.2H317.906C318.973 55.8 321.04 50.8667 324.106 47.4C327.173 43.8 330.906 42 335.306 42H343.106L345.906 26.2C346.973 20.6 349.773 16.5333 354.306 14C358.973 11.4667 365.973 10.2 375.306 10.2L369.706 42H396.306C395.106 49.0667 392.84 54.2 389.506 57.4C386.306 60.6 381.64 62.2 375.506 62.2H366.506L358.506 107.8C358.24 109.933 358.106 111.4 358.106 112.2C358.106 115.133 358.84 117.2 360.306 118.4C361.906 119.6 364.44 120.2 367.906 120.2C372.573 120.2 377.64 118.867 383.106 116.2C384.04 117.133 384.773 118.4 385.306 120C385.84 121.467 386.106 123 386.106 124.6C386.106 129.933 383.306 134.467 377.706 138.2C372.24 141.933 365.573 143.8 357.706 143.8ZM438.466 32.6C433.932 32.6 430.266 31.4 427.466 29C424.666 26.4667 423.266 23.2667 423.266 19.4C423.266 14.0667 425.332 9.53332 429.466 5.79999C433.599 2.06666 438.532 0.19999 444.266 0.19999C448.666 0.19999 452.266 1.46666 455.066 3.99999C457.866 6.39999 459.266 9.53333 459.266 13.4C459.266 18.7333 457.199 23.2667 453.066 27C449.066 30.7333 444.199 32.6 438.466 32.6ZM420.466 56.2C421.532 50.7333 424.466 46.7333 429.266 44.2C434.066 41.5333 441.199 40.2 450.666 40.2L435.266 127.8C434.332 133.4 431.399 137.467 426.466 140C421.666 142.533 414.532 143.8 405.066 143.8L420.466 56.2ZM503.483 143.8C496.016 143.8 489.216 142.4 483.083 139.6C477.083 136.667 472.349 132.733 468.883 127.8C465.549 122.867 463.883 117.4 463.883 111.4C463.883 109 464.016 107.2 464.283 106L468.883 80.4C470.216 72.5333 473.349 65.6 478.283 59.6C483.349 53.4667 489.616 48.7333 497.083 45.4C504.683 41.9333 512.949 40.2 521.883 40.2C529.349 40.2 535.883 41.6 541.483 44.4C547.216 47.0667 551.616 50.8667 554.683 55.8C557.883 60.6 559.483 66.0667 559.483 72.2C559.483 74.3333 559.283 76.6 558.883 79L556.883 89.8C556.216 93.1333 554.483 95.8667 551.683 98C549.016 100.133 545.816 101.2 542.083 101.2H491.683L491.283 104C491.149 104.8 491.083 106 491.083 107.6C491.083 112.267 492.483 115.867 495.283 118.4C498.083 120.933 502.149 122.2 507.483 122.2C513.216 122.2 517.883 120.933 521.483 118.4C525.216 115.867 527.416 112.333 528.083 107.8C531.016 107.533 532.949 107.4 533.883 107.4C544.016 107.4 549.083 110.933 549.083 118C549.083 122.533 547.016 126.8 542.883 130.8C538.749 134.8 533.149 138 526.083 140.4C519.149 142.667 511.616 143.8 503.483 143.8ZM533.483 81.8L534.083 79C534.483 77.4 534.683 75.9333 534.683 74.6C534.683 70.4667 533.216 67.2667 530.283 65C527.483 62.7333 523.349 61.6 517.883 61.6C512.283 61.6 507.416 63.2 503.283 66.4C499.283 69.4667 496.749 73.6667 495.683 79L495.083 81.8H533.483Z" fill="url(#paint0_linear_20_3)"/>
</g>
<defs>
<filter id="filter0_d_20_3" x="0.800003" y="0.199951" width="562.683" height="151.6" filterUnits="userSpaceOnUse" color-interpolation-filters="sRGB">
<feFlood flood-opacity="0" result="BackgroundImageFix"/>
<feColorMatrix in="SourceAlpha" type="matrix" values="0 0 0 0 0 0 0 0 0 0 0 0 0 0 0 0 0 0 127 0" result="hardAlpha"/>
<feOffset dy="4"/>
<feGaussianBlur stdDeviation="2"/>
<feComposite in2="hardAlpha" operator="out"/>
<feColorMatrix type="matrix" values="0 0 0 0 0 0 0 0 0 0 0 0 0 0 0 0 0 0 0.25 0"/>
<feBlend mode="normal" in2="BackgroundImageFix" result="effect1_dropShadow_20_3"/>
<feBlend mode="normal" in="SourceGraphic" in2="effect1_dropShadow_20_3" result="shape"/>
</filter>
<linearGradient id="paint0_linear_20_3" x1="33.027" y1="39.0107" x2="732" y2="246" gradientUnits="userSpaceOnUse">
<stop stop-color="#006BFF"/>
<stop offset="1" stop-color="#08C2FF"/>
</linearGradient>
</defs>
</svg>
